<?xml version="1.0" encoding="utf-8"?>
<!-- Generator: Adobe Illustrator 16.0.0, SVG Export Plug-In . SVG Version: 6.00 Build 0)  -->
<!DOCTYPE svg PUBLIC "-//W3C//DTD SVG 1.1//EN" "http://www.w3.org/Graphics/SVG/1.1/DTD/svg11.dtd">
<svg version="1.1" xmlns="http://www.w3.org/2000/svg" xmlns:xlink="http://www.w3.org/1999/xlink" x="0px" y="0px" width="200px"
	 height="171.667px" viewBox="0 0 200 171.667" enable-background="new 0 0 200 171.667" xml:space="preserve">
<g id="Layer_3" display="none">
</g>
<g id="bg">
</g>
<g id="Layer_4">
</g>
<g id="Layer_5">
</g>
<g id="Layer_1">
	<path fill="#36C670" d="M133.344,40.873c-20.287,7.207-28.604,29.455-25.462,41.796c-4.854,6.816-9.115,15.364-10.969,25.667
		c0,0-0.464-4.904-2.365-12.295c11.861-15.051,5.99-48.475-16.159-63.967C50.858,12.82,20.885,10.539,5.833,5.522
		c15.283,17.289,16.904,22.615,32.649,60.127c14.394,34.292,34.522,38.715,46.954,36.274c-4.258-23.501-12.367-38.518-25.65-59.661
		c21.806,15.452,30.984,39.192,34.715,53.612c-2.529,2.312-4.036,4.047-9.051,6.114c2.883,15.952,3.993,35.815,3.743,64.156h14.125
		c0,0-2.808-41.931,9.522-75.752c-3.035-3.206-3.616-4.595-4.916-7.771c9.688-13.579,21.715-20.29,21.715-20.29
		c-7.508,7.507-12.922,17.421-16.821,28.141c16.613,15.156,42.52-11.829,49.547-24.129c7.41-12.967,26.244-22.536,31.802-20.377
		C194.167,45.966,171.924,27.167,133.344,40.873z"/>
</g>
<g id="Layer_8">
</g>
<g id="Layer_2">
</g>
<g id="Layer_6">
</g>
<g id="Layer_9" display="none">
</g>
<g id="Layer_10">
</g>
</svg>
